<?xml version="1.0" standalone="no"?>
<!DOCTYPE svg PUBLIC "-//W3C//DTD SVG 20010904//EN"
 "http://www.w3.org/TR/2001/REC-SVG-20010904/DTD/svg10.dtd">
<svg version="1.0" xmlns="http://www.w3.org/2000/svg"
 width="489.000000pt" height="489.000000pt" viewBox="0 0 489.000000 489.000000"
 preserveAspectRatio="xMidYMid meet">
<metadata>
Created by potrace 1.11, written by Peter Selinger 2001-2013
</metadata>
<g transform="translate(0.000000,489.000000) scale(0.100000,-0.100000)"
fill="#000000" stroke="none">
<path d="M2239 4875 c-185 -25 -389 -90 -565 -178 -414 -208 -679 -558 -760
-1002 -25 -136 -25 -429 -1 -570 99 -572 446 -1363 1014 -2318 205 -344 496
-797 512 -797 17 0 306 448 512 795 572 959 917 1748 1016 2320 24 141 24 434
-1 570 -39 215 -128 423 -252 588 -312 415 -936 665 -1475 592z m401 -376
c125 -31 250 -100 347 -193 131 -123 200 -238 241 -400 15 -58 27 -82 47 -98
15 -12 47 -48 71 -81 138 -186 108 -465 -65 -618 -44 -40 -171 -109 -198 -109
-10 0 -13 93 -13 456 l0 456 24 -6 c13 -3 31 -9 40 -12 14 -5 13 2 -4 50 -103
301 -376 496 -695 496 -319 0 -592 -195 -695 -496 -18 -52 -18 -55 -2 -49 9 3
29 9 45 12 l27 6 0 -457 c0 -524 11 -479 -105 -422 -125 60 -207 152 -247 279
-27 85 -27 201 1 289 22 68 87 168 136 206 20 16 32 40 47 98 40 159 110 275
236 396 203 194 484 267 762 197z m-58 -303 c141 -27 255 -84 368 -184 l60
-53 0 -503 0 -503 -47 -45 c-92 -85 -189 -141 -313 -179 -98 -31 -299 -34
-400 -6 -100 27 -221 92 -304 163 l-76 65 0 501 0 502 50 47 c180 168 424 241
662 195z"/>
</g>
</svg>
